<svg width="522" height="680" viewBox="0 0 522 680" fill="none" xmlns="http://www.w3.org/2000/svg">
<path d="M125.699 41.3346L60.7456 106.288L93.9606 152.789C85.8409 166.812 79.9356 181.575 76.2459 195.6L20.15 204.456L19.4123 296.72L59.2193 304.053L60.4528 297.382L77.9448 202.804L175.176 226.997C175.216 227.007 175.216 227.355 175.206 227.993L175.216 227.994C175.182 229.412 175.846 232.481 175.546 236.663C178.436 217.056 187.361 198.152 202.463 183.05C223.869 161.644 252.675 152.411 280.464 155.351C282.525 155.569 284.581 155.854 286.628 156.206L324.244 56.7955L314.654 4.3869e-05L223.131 0L213.534 56.8336C198.772 61.2635 184.748 66.4298 170.724 74.5495L125.699 41.3346Z" fill="#4A2C97"/>
<path fill-rule="evenodd" clip-rule="evenodd" d="M366.698 74.348L366.92 74.4711L366.944 74.4844L367.061 74.5495L367.296 74.3812L329.208 175.038C332.352 177.486 335.381 180.158 338.274 183.052C375.918 220.695 375.919 281.22 338.276 318.863C300.632 356.507 239.369 355.769 202.463 318.863C199.811 316.212 197.347 313.435 195.07 310.55C189.783 354.458 183.326 390.185 173.19 427.933C186.885 435.728 200.595 440.755 215.01 445.08L224.606 500.438L316.87 501.176L325.726 445.08C340.489 440.65 355.25 434.746 369.275 426.628L415.038 460.58L479.991 395.627L446.776 349.126C454.896 335.103 460.064 321.078 464.491 306.315L521.326 296.72V205.194L464.491 195.599C460.062 180.837 454.157 166.075 446.039 152.05L478.515 106.288L413.562 41.3346L367.296 74.3812L367.726 73.2453L366.698 74.348Z" fill="#7B49FB"/>
<path d="M6.32252 617.996L6.3246 617.986H6.32227L72.1383 299.327L72.1403 299.317L75.5257 282.935L89.802 213.803L89.8115 213.805L89.8118 213.804L175.206 227.993C175.216 227.355 175.216 227.007 175.176 226.997L77.9448 202.804L60.4528 297.382L59.2193 304.053L0 624.318C0 624.318 14.3703 624.508 37.4165 607.076C18.0401 618.135 6.32252 617.996 6.32252 617.996Z" fill="#4A2C97"/>
<path d="M37.4163 607.066C58.5479 591.09 86.9593 560.285 118.283 500.889C120.625 495.875 122.878 490.656 125.046 485.265C129.172 475.004 132.988 464.123 136.513 452.857C142.485 433.771 147.622 413.582 152.019 393.437C160.518 354.494 166.245 315.719 169.883 285.406C171.755 269.808 173.503 256.534 174.6 246.593C174.746 243.273 175.061 239.958 175.546 236.663C175.846 232.481 175.182 229.412 175.216 227.994L175.206 227.993L175.206 227.994L89.8115 213.805L75.5257 282.935L72.1425 299.317L72.1405 299.327L6.3246 617.986C6.51396 617.987 18.1979 618.035 37.4163 607.066Z" fill="#4A2C97"/>
<path d="M114.202 598.197C111.083 597.133 108.247 596.07 105.695 595.006C103.143 593.872 100.945 592.525 99.1022 590.966C97.259 589.406 95.8057 587.563 94.7423 585.436C93.7498 583.238 93.2535 580.58 93.2535 577.461C93.2535 571.435 95.5575 566.614 100.166 562.999C104.844 559.383 111.367 557.575 119.732 557.575C122.78 557.575 125.616 557.788 128.239 558.213C130.862 558.639 133.095 559.312 134.938 560.234C136.852 561.085 138.341 562.219 139.404 563.637C140.468 564.984 140.999 566.579 140.999 568.422C140.999 570.265 140.574 571.86 139.723 573.207C138.873 574.483 137.845 575.582 136.64 576.504C135.08 575.511 132.989 574.66 130.366 573.951C127.743 573.172 124.872 572.782 121.752 572.782C118.562 572.782 116.223 573.243 114.734 574.164C113.245 575.015 112.501 576.114 112.501 577.461C112.501 578.524 112.962 579.41 113.883 580.119C114.805 580.757 116.187 581.36 118.03 581.927L123.666 583.735C130.33 585.861 135.434 588.591 138.979 591.923C142.595 595.184 144.402 599.65 144.402 605.321C144.402 611.347 142.027 616.239 137.278 619.996C132.528 623.682 125.545 625.526 116.329 625.526C113.068 625.526 110.02 625.242 107.184 624.675C104.419 624.179 101.973 623.434 99.8465 622.442C97.7906 621.378 96.1601 620.102 94.955 618.614C93.8207 617.054 93.2535 615.282 93.2535 613.297C93.2535 611.241 93.8561 609.504 95.0613 608.086C96.2665 606.597 97.578 605.463 98.9958 604.683C100.981 606.243 103.391 607.59 106.227 608.724C109.133 609.858 112.288 610.426 115.691 610.426C119.165 610.426 121.61 609.894 123.028 608.83C124.446 607.767 125.155 606.526 125.155 605.109C125.155 603.691 124.588 602.627 123.454 601.918C122.319 601.139 120.724 600.394 118.668 599.685L114.202 598.197ZM154.481 569.273C154.481 566.224 155.367 563.814 157.14 562.042C158.912 560.269 161.322 559.383 164.371 559.383H199.462C199.959 560.163 200.384 561.191 200.738 562.467C201.164 563.743 201.376 565.09 201.376 566.508C201.376 569.202 200.774 571.116 199.569 572.25C198.434 573.384 196.91 573.951 194.996 573.951H172.559V583.841H196.485C196.981 584.621 197.407 585.649 197.761 586.925C198.186 588.13 198.399 589.441 198.399 590.859C198.399 593.553 197.832 595.467 196.698 596.602C195.563 597.736 194.039 598.303 192.125 598.303H172.559V609.469H199.888C200.384 610.248 200.809 611.276 201.164 612.552C201.589 613.828 201.802 615.175 201.802 616.593C201.802 619.287 201.199 621.237 199.994 622.442C198.86 623.576 197.336 624.143 195.422 624.143H164.371C161.322 624.143 158.912 623.257 157.14 621.485C155.367 619.712 154.481 617.302 154.481 614.254V569.273ZM271.119 621.591C270.126 622.584 268.673 623.328 266.759 623.824C264.916 624.391 262.683 624.675 260.06 624.675C257.436 624.675 254.955 624.285 252.616 623.505C250.276 622.725 248.362 620.847 246.874 617.869L236.346 596.389C235.283 594.191 234.326 592.135 233.475 590.221C232.624 588.236 231.703 585.968 230.71 583.416L230.072 583.522C230.356 587.35 230.497 591.249 230.497 595.219C230.568 599.189 230.604 603.088 230.604 606.916V623.399C229.824 623.612 228.619 623.824 226.988 624.037C225.429 624.25 223.869 624.356 222.309 624.356C220.75 624.356 219.367 624.25 218.162 624.037C216.957 623.824 215.964 623.399 215.185 622.761C214.405 622.123 213.802 621.272 213.377 620.209C212.952 619.074 212.739 617.621 212.739 615.849V562.68C213.731 561.262 215.256 560.198 217.311 559.489C219.367 558.781 221.565 558.426 223.904 558.426C226.527 558.426 229.009 558.851 231.348 559.702C233.758 560.482 235.673 562.325 237.09 565.232L247.724 586.712C248.788 588.91 249.745 591.001 250.595 592.986C251.446 594.9 252.368 597.133 253.36 599.685L253.892 599.579C253.608 595.751 253.431 591.923 253.36 588.095C253.289 584.266 253.254 580.438 253.254 576.61V559.383C254.034 559.17 255.203 558.958 256.763 558.745C258.394 558.532 259.989 558.426 261.548 558.426C264.668 558.426 267.042 558.993 268.673 560.127C270.303 561.191 271.119 563.459 271.119 566.933V621.591ZM303.202 598.197C300.083 597.133 297.247 596.07 294.695 595.006C292.143 593.872 289.945 592.525 288.102 590.966C286.259 589.406 284.806 587.563 283.742 585.436C282.75 583.238 282.254 580.58 282.254 577.461C282.254 571.435 284.558 566.614 289.166 562.999C293.844 559.383 300.366 557.575 308.732 557.575C311.78 557.575 314.616 557.788 317.239 558.213C319.862 558.639 322.095 559.312 323.938 560.234C325.852 561.085 327.341 562.219 328.404 563.637C329.468 564.984 329.999 566.579 329.999 568.422C329.999 570.265 329.574 571.86 328.723 573.207C327.873 574.483 326.845 575.582 325.64 576.504C324.08 575.511 321.989 574.66 319.366 573.951C316.743 573.172 313.871 572.782 310.752 572.782C307.562 572.782 305.223 573.243 303.734 574.164C302.245 575.015 301.501 576.114 301.501 577.461C301.501 578.524 301.962 579.41 302.883 580.119C303.805 580.757 305.187 581.36 307.03 581.927L312.666 583.735C319.33 585.861 324.434 588.591 327.979 591.923C331.595 595.184 333.402 599.65 333.402 605.321C333.402 611.347 331.027 616.239 326.278 619.996C321.528 623.682 314.545 625.526 305.329 625.526C302.068 625.526 299.02 625.242 296.184 624.675C293.419 624.179 290.973 623.434 288.846 622.442C286.791 621.378 285.16 620.102 283.955 618.614C282.821 617.054 282.254 615.282 282.254 613.297C282.254 611.241 282.856 609.504 284.061 608.086C285.266 606.597 286.578 605.463 287.996 604.683C289.981 606.243 292.391 607.59 295.227 608.724C298.133 609.858 301.288 610.426 304.691 610.426C308.165 610.426 310.61 609.894 312.028 608.83C313.446 607.767 314.155 606.526 314.155 605.109C314.155 603.691 313.588 602.627 312.454 601.918C311.319 601.139 309.724 600.394 307.668 599.685L303.202 598.197ZM343.481 569.273C343.481 566.224 344.367 563.814 346.14 562.042C347.912 560.269 350.322 559.383 353.371 559.383H388.462C388.959 560.163 389.384 561.191 389.738 562.467C390.164 563.743 390.376 565.09 390.376 566.508C390.376 569.202 389.774 571.116 388.569 572.25C387.434 573.384 385.91 573.951 383.996 573.951H361.559V583.841H385.485C385.981 584.621 386.406 585.649 386.761 586.925C387.186 588.13 387.399 589.441 387.399 590.859C387.399 593.553 386.832 595.467 385.698 596.602C384.563 597.736 383.039 598.303 381.125 598.303H361.559V609.469H388.888C389.384 610.248 389.809 611.276 390.164 612.552C390.589 613.828 390.802 615.175 390.802 616.593C390.802 619.287 390.199 621.237 388.994 622.442C387.86 623.576 386.336 624.143 384.421 624.143H353.371C350.322 624.143 347.912 623.257 346.14 621.485C344.367 619.712 343.481 617.302 343.481 614.254V569.273ZM397.166 615.211C397.166 612.233 398.088 609.752 399.931 607.767C401.774 605.782 404.291 604.79 407.481 604.79C410.671 604.79 413.188 605.782 415.031 607.767C416.874 609.752 417.796 612.233 417.796 615.211C417.796 618.188 416.874 620.67 415.031 622.654C413.188 624.639 410.671 625.632 407.481 625.632C404.291 625.632 401.774 624.639 399.931 622.654C398.088 620.67 397.166 618.188 397.166 615.211Z" fill="#7B49FB"/>
<path d="M442.353 561.297C443.558 560.588 445.366 559.915 447.776 559.277C450.257 558.639 452.738 558.32 455.22 558.32C458.764 558.32 461.884 558.851 464.577 559.915C467.342 560.907 469.115 562.502 469.894 564.7C471.17 568.386 472.553 572.675 474.042 577.567C475.53 582.459 477.019 587.527 478.508 592.773C479.996 597.949 481.45 603.088 482.868 608.192C484.285 613.226 485.526 617.692 486.589 621.591C485.739 622.584 484.463 623.363 482.761 623.931C481.06 624.569 479.039 624.888 476.7 624.888C474.999 624.888 473.545 624.746 472.34 624.462C471.206 624.179 470.249 623.753 469.469 623.186C468.76 622.619 468.157 621.875 467.661 620.953C467.236 620.031 466.846 618.968 466.492 617.763L464.577 610.426H445.33C444.763 612.552 444.196 614.75 443.629 617.019C443.062 619.287 442.494 621.485 441.927 623.612C440.935 623.966 439.871 624.25 438.737 624.462C437.674 624.746 436.362 624.888 434.803 624.888C431.187 624.888 428.493 624.285 426.721 623.08C425.02 621.804 424.169 620.067 424.169 617.869C424.169 616.877 424.311 615.884 424.594 614.892C424.878 613.899 425.197 612.73 425.551 611.383C426.047 609.469 426.721 607.094 427.572 604.258C428.493 601.422 429.486 598.374 430.549 595.113C431.612 591.781 432.747 588.378 433.952 584.904C435.157 581.431 436.291 578.17 437.355 575.121C438.418 572.002 439.375 569.237 440.226 566.827C441.148 564.416 441.856 562.573 442.353 561.297ZM455.113 575.015C454.121 577.992 452.987 581.324 451.71 585.011C450.505 588.626 449.406 592.313 448.414 596.07H461.6C460.607 592.242 459.58 588.52 458.516 584.904C457.524 581.218 456.602 577.921 455.751 575.015H455.113ZM513.913 623.399C513.134 623.612 511.893 623.824 510.192 624.037C508.561 624.25 506.931 624.356 505.3 624.356C503.67 624.356 502.216 624.214 500.94 623.931C499.735 623.718 498.707 623.293 497.856 622.654C497.006 622.016 496.368 621.13 495.942 619.996C495.517 618.862 495.304 617.373 495.304 615.53V559.383C496.084 559.241 497.325 559.064 499.026 558.851C500.727 558.568 502.358 558.426 503.918 558.426C505.548 558.426 506.966 558.568 508.171 558.851C509.447 559.064 510.511 559.489 511.361 560.127C512.212 560.766 512.85 561.652 513.275 562.786C513.701 563.92 513.913 565.409 513.913 567.252V623.399Z" fill="#4A2C97"/>
</svg>
